<svg xmlns="http://www.w3.org/2000/svg" width="960" height="450" viewBox="0 0 960 450">
<rect width="960" height="450" fill="#ffffff"/>
<text x="480" y="32" text-anchor="middle" font-family="Arial, sans-serif" font-size="20" font-weight="700" fill="#1a202c">Entropy Collapse: Accuracy, SC, and Entropy</text>
<line x1="82" y1="369.0" x2="878" y2="369.0" stroke="#e2e8f0" stroke-width="1"/>
<text x="74" y="372.5" text-anchor="end" font-family="Arial, sans-serif" font-size="10" fill="#718096">61</text>
<line x1="82" y1="314.3" x2="878" y2="314.3" stroke="#e2e8f0" stroke-width="1"/>
<text x="74" y="317.8" text-anchor="end" font-family="Arial, sans-serif" font-size="10" fill="#718096">65</text>
<line x1="82" y1="259.7" x2="878" y2="259.7" stroke="#e2e8f0" stroke-width="1"/>
<text x="74" y="263.2" text-anchor="end" font-family="Arial, sans-serif" font-size="10" fill="#718096">69</text>
<line x1="82" y1="191.3" x2="878" y2="191.3" stroke="#e2e8f0" stroke-width="1"/>
<text x="74" y="194.8" text-anchor="end" font-family="Arial, sans-serif" font-size="10" fill="#718096">74</text>
<line x1="82" y1="136.7" x2="878" y2="136.7" stroke="#e2e8f0" stroke-width="1"/>
<text x="74" y="140.2" text-anchor="end" font-family="Arial, sans-serif" font-size="10" fill="#718096">78</text>
<line x1="82" y1="82.0" x2="878" y2="82.0" stroke="#e2e8f0" stroke-width="1"/>
<text x="74" y="85.5" text-anchor="end" font-family="Arial, sans-serif" font-size="10" fill="#718096">82</text>
<text x="886" y="372.5" text-anchor="start" font-family="Arial, sans-serif" font-size="10" fill="#805ad5">-0.05</text>
<text x="886" y="300.8" text-anchor="start" font-family="Arial, sans-serif" font-size="10" fill="#805ad5">0.08</text>
<text x="886" y="229.0" text-anchor="start" font-family="Arial, sans-serif" font-size="10" fill="#805ad5">0.21</text>
<text x="886" y="157.2" text-anchor="start" font-family="Arial, sans-serif" font-size="10" fill="#805ad5">0.34</text>
<text x="886" y="85.5" text-anchor="start" font-family="Arial, sans-serif" font-size="10" fill="#805ad5">0.47</text>
<line x1="82" y1="369" x2="878" y2="369" stroke="#a0aec0" stroke-width="1.2"/>
<line x1="82" y1="82" x2="82" y2="369" stroke="#a0aec0" stroke-width="1.2"/>
<line x1="878" y1="82" x2="878" y2="369" stroke="#805ad5" stroke-width="1.2"/>
<text x="34" y="221.5" text-anchor="middle" font-family="Arial, sans-serif" font-size="11" font-weight="700" fill="#4a5568" transform="rotate(-90 34 221.5)">Accuracy (%)</text>
<text x="926" y="221.5" text-anchor="middle" font-family="Arial, sans-serif" font-size="11" font-weight="700" fill="#805ad5" transform="rotate(90 926 221.5)">Entropy</text>
<line x1="82.0" y1="369" x2="82.0" y2="374" stroke="#a0aec0" stroke-width="1"/>
<text x="82.0" y="385" text-anchor="middle" font-family="Arial, sans-serif" font-size="10" fill="#718096">0</text>
<line x1="170.4" y1="369" x2="170.4" y2="374" stroke="#a0aec0" stroke-width="1"/>
<text x="170.4" y="385" text-anchor="middle" font-family="Arial, sans-serif" font-size="10" fill="#718096">20</text>
<line x1="258.9" y1="369" x2="258.9" y2="374" stroke="#a0aec0" stroke-width="1"/>
<text x="258.9" y="385" text-anchor="middle" font-family="Arial, sans-serif" font-size="10" fill="#718096">40</text>
<line x1="347.3" y1="369" x2="347.3" y2="374" stroke="#a0aec0" stroke-width="1"/>
<text x="347.3" y="385" text-anchor="middle" font-family="Arial, sans-serif" font-size="10" fill="#718096">60</text>
<line x1="435.8" y1="369" x2="435.8" y2="374" stroke="#a0aec0" stroke-width="1"/>
<text x="435.8" y="385" text-anchor="middle" font-family="Arial, sans-serif" font-size="10" fill="#718096">80</text>
<line x1="524.2" y1="369" x2="524.2" y2="374" stroke="#a0aec0" stroke-width="1"/>
<text x="524.2" y="385" text-anchor="middle" font-family="Arial, sans-serif" font-size="10" fill="#718096">100</text>
<line x1="612.7" y1="369" x2="612.7" y2="374" stroke="#a0aec0" stroke-width="1"/>
<text x="612.7" y="385" text-anchor="middle" font-family="Arial, sans-serif" font-size="10" fill="#718096">120</text>
<line x1="701.1" y1="369" x2="701.1" y2="374" stroke="#a0aec0" stroke-width="1"/>
<text x="701.1" y="385" text-anchor="middle" font-family="Arial, sans-serif" font-size="10" fill="#718096">140</text>
<line x1="789.6" y1="369" x2="789.6" y2="374" stroke="#a0aec0" stroke-width="1"/>
<text x="789.6" y="385" text-anchor="middle" font-family="Arial, sans-serif" font-size="10" fill="#718096">160</text>
<line x1="878.0" y1="369" x2="878.0" y2="374" stroke="#a0aec0" stroke-width="1"/>
<text x="878.0" y="385" text-anchor="middle" font-family="Arial, sans-serif" font-size="10" fill="#718096">180</text>
<text x="480" y="404" text-anchor="middle" font-family="Arial, sans-serif" font-size="11" font-weight="700" fill="#4a5568">Checkpoint</text>
<polyline points="82.0,312.7 170.4,301.1 258.9,349.2 347.3,289.5 435.8,315.3 524.2,298.3 612.7,295.7 701.1,303.7 789.6,304.6 878.0,318.0" fill="none" stroke="#2b6cb0" stroke-width="2.5" stroke-linecap="round" stroke-linejoin="round"/>
<circle cx="82.0" cy="312.7" r="3.1" fill="white" stroke="#2b6cb0" stroke-width="2"/>
<circle cx="170.4" cy="301.1" r="3.1" fill="white" stroke="#2b6cb0" stroke-width="2"/>
<circle cx="258.9" cy="349.2" r="3.1" fill="white" stroke="#2b6cb0" stroke-width="2"/>
<circle cx="347.3" cy="289.5" r="3.1" fill="white" stroke="#2b6cb0" stroke-width="2"/>
<circle cx="435.8" cy="315.3" r="3.1" fill="white" stroke="#2b6cb0" stroke-width="2"/>
<circle cx="524.2" cy="298.3" r="3.1" fill="white" stroke="#2b6cb0" stroke-width="2"/>
<circle cx="612.7" cy="295.7" r="3.1" fill="white" stroke="#2b6cb0" stroke-width="2"/>
<circle cx="701.1" cy="303.7" r="3.1" fill="white" stroke="#2b6cb0" stroke-width="2"/>
<circle cx="789.6" cy="304.6" r="3.1" fill="white" stroke="#2b6cb0" stroke-width="2"/>
<circle cx="878.0" cy="318.0" r="3.1" fill="white" stroke="#2b6cb0" stroke-width="2"/>
<polyline points="82.0,112.2 170.4,119.3 258.9,151.4 347.3,148.7 435.8,171.9 524.2,146.9 612.7,138.9" fill="none" stroke="#38a169" stroke-width="2.5" stroke-linecap="round" stroke-linejoin="round"/>
<circle cx="82.0" cy="112.2" r="3.1" fill="white" stroke="#38a169" stroke-width="2"/>
<circle cx="170.4" cy="119.3" r="3.1" fill="white" stroke="#38a169" stroke-width="2"/>
<circle cx="258.9" cy="151.4" r="3.1" fill="white" stroke="#38a169" stroke-width="2"/>
<circle cx="347.3" cy="148.7" r="3.1" fill="white" stroke="#38a169" stroke-width="2"/>
<circle cx="435.8" cy="171.9" r="3.1" fill="white" stroke="#38a169" stroke-width="2"/>
<circle cx="524.2" cy="146.9" r="3.1" fill="white" stroke="#38a169" stroke-width="2"/>
<circle cx="612.7" cy="138.9" r="3.1" fill="white" stroke="#38a169" stroke-width="2"/>
<polyline points="82.0,273.5 170.4,261.0 258.9,294.8 347.3,262.8 435.8,283.2 524.2,274.3 612.7,276.1" fill="none" stroke="#dd6b20" stroke-width="2.5" stroke-linecap="round" stroke-linejoin="round" stroke-dasharray="6 4"/>
<circle cx="82.0" cy="273.5" r="3.1" fill="white" stroke="#dd6b20" stroke-width="2"/>
<circle cx="170.4" cy="261.0" r="3.1" fill="white" stroke="#dd6b20" stroke-width="2"/>
<circle cx="258.9" cy="294.8" r="3.1" fill="white" stroke="#dd6b20" stroke-width="2"/>
<circle cx="347.3" cy="262.8" r="3.1" fill="white" stroke="#dd6b20" stroke-width="2"/>
<circle cx="435.8" cy="283.2" r="3.1" fill="white" stroke="#dd6b20" stroke-width="2"/>
<circle cx="524.2" cy="274.3" r="3.1" fill="white" stroke="#dd6b20" stroke-width="2"/>
<circle cx="612.7" cy="276.1" r="3.1" fill="white" stroke="#dd6b20" stroke-width="2"/>
<polyline points="82.0,119.2 170.4,185.7 258.9,283.5 347.3,281.9 435.8,287.0 524.2,254.6 612.7,249.5 701.1,242.2 789.6,257.0 878.0,297.8" fill="none" stroke="#805ad5" stroke-width="2.5" stroke-linecap="round" stroke-linejoin="round"/>
<circle cx="82.0" cy="119.2" r="3.1" fill="white" stroke="#805ad5" stroke-width="2"/>
<circle cx="170.4" cy="185.7" r="3.1" fill="white" stroke="#805ad5" stroke-width="2"/>
<circle cx="258.9" cy="283.5" r="3.1" fill="white" stroke="#805ad5" stroke-width="2"/>
<circle cx="347.3" cy="281.9" r="3.1" fill="white" stroke="#805ad5" stroke-width="2"/>
<circle cx="435.8" cy="287.0" r="3.1" fill="white" stroke="#805ad5" stroke-width="2"/>
<circle cx="524.2" cy="254.6" r="3.1" fill="white" stroke="#805ad5" stroke-width="2"/>
<circle cx="612.7" cy="249.5" r="3.1" fill="white" stroke="#805ad5" stroke-width="2"/>
<circle cx="701.1" cy="242.2" r="3.1" fill="white" stroke="#805ad5" stroke-width="2"/>
<circle cx="789.6" cy="257.0" r="3.1" fill="white" stroke="#805ad5" stroke-width="2"/>
<circle cx="878.0" cy="297.8" r="3.1" fill="white" stroke="#805ad5" stroke-width="2"/>
<line x1="278" y1="416" x2="306" y2="416" stroke="#2b6cb0" stroke-width="3" stroke-linecap="round"/>
<text x="314" y="420" text-anchor="start" font-family="Arial, sans-serif" font-size="12" font-weight="400" fill="#1a202c">accuracy</text>
<line x1="370" y1="416" x2="398" y2="416" stroke="#38a169" stroke-width="3" stroke-linecap="round"/>
<text x="406" y="420" text-anchor="start" font-family="Arial, sans-serif" font-size="12" font-weight="400" fill="#1a202c">pass@16</text>
<line x1="463" y1="416" x2="491" y2="416" stroke="#dd6b20" stroke-width="3" stroke-linecap="round" stroke-dasharray="6 4"/>
<text x="499" y="420" text-anchor="start" font-family="Arial, sans-serif" font-size="12" font-weight="400" fill="#1a202c">SC</text>
<line x1="526" y1="416" x2="554" y2="416" stroke="#805ad5" stroke-width="3" stroke-linecap="round"/>
<text x="562" y="420" text-anchor="start" font-family="Arial, sans-serif" font-size="12" font-weight="400" fill="#1a202c">entropy</text>
</svg>
