<svg xmlns="http://www.w3.org/2000/svg" width="500" height="430" viewBox="0 0 500 430" role="img" aria-label="Gemma-4 accuracy comparison">
<rect width="500" height="430" fill="#ffffff"/>
<text x="250.0" y="30.0" text-anchor="middle" font-family="Arial, sans-serif" font-size="20" font-weight="700" fill="#1a202c">Gemma-4</text>
<text x="250.0" y="60.0" text-anchor="middle" font-family="Arial, sans-serif" font-size="15" font-weight="700" fill="#1a202c">Accuracy</text>
<line x1="70.0" y1="315.0" x2="430.0" y2="315.0" stroke="#e2e8f0" stroke-width="1"/>
<text x="60.0" y="319.0" text-anchor="end" font-family="Arial, sans-serif" font-size="10" font-weight="400" fill="#718096">55</text>
<line x1="70.0" y1="271.9" x2="430.0" y2="271.9" stroke="#e2e8f0" stroke-width="1"/>
<text x="60.0" y="275.9" text-anchor="end" font-family="Arial, sans-serif" font-size="10" font-weight="400" fill="#718096">60</text>
<line x1="70.0" y1="228.7" x2="430.0" y2="228.7" stroke="#e2e8f0" stroke-width="1"/>
<text x="60.0" y="232.7" text-anchor="end" font-family="Arial, sans-serif" font-size="10" font-weight="400" fill="#718096">65</text>
<line x1="70.0" y1="185.6" x2="430.0" y2="185.6" stroke="#e2e8f0" stroke-width="1"/>
<text x="60.0" y="189.6" text-anchor="end" font-family="Arial, sans-serif" font-size="10" font-weight="400" fill="#718096">70</text>
<line x1="70.0" y1="142.4" x2="430.0" y2="142.4" stroke="#e2e8f0" stroke-width="1"/>
<text x="60.0" y="146.4" text-anchor="end" font-family="Arial, sans-serif" font-size="10" font-weight="400" fill="#718096">75</text>
<line x1="70.0" y1="99.3" x2="430.0" y2="99.3" stroke="#e2e8f0" stroke-width="1"/>
<text x="60.0" y="103.3" text-anchor="end" font-family="Arial, sans-serif" font-size="10" font-weight="400" fill="#718096">80</text>
<line x1="70.0" y1="315.0" x2="430.0" y2="315.0" stroke="#4a5568" stroke-width="1.2"/>
<line x1="70.0" y1="82.0" x2="70.0" y2="315.0" stroke="#4a5568" stroke-width="1.2"/>
<text x="26.0" y="198.5" text-anchor="middle" font-family="Arial, sans-serif" font-size="11" font-weight="700" fill="#4a5568">EX (%)</text>
<rect x="102.0" y="227.7" width="24.0" height="87.3" fill="#2b6cb0" rx="3"/>
<text x="114.0" y="221.7" text-anchor="middle" font-family="Arial, sans-serif" font-size="10" font-weight="400" fill="#4a5568">65.1</text>
<rect x="130.0" y="101.1" width="24.0" height="213.9" fill="#dd6b20" rx="3"/>
<text x="142.0" y="95.1" text-anchor="middle" font-family="Arial, sans-serif" font-size="10" font-weight="400" fill="#4a5568">79.8</text>
<text x="116.0" y="339.0" text-anchor="middle" font-family="Arial, sans-serif" font-size="11" font-weight="400" fill="#1a202c">E4B-it</text>
<rect x="212.0" y="192.2" width="24.0" height="122.8" fill="#2b6cb0" rx="3"/>
<text x="224.0" y="186.2" text-anchor="middle" font-family="Arial, sans-serif" font-size="10" font-weight="400" fill="#4a5568">69.2</text>
<rect x="240.0" y="118.5" width="24.0" height="196.5" fill="#dd6b20" rx="3"/>
<text x="252.0" y="112.5" text-anchor="middle" font-family="Arial, sans-serif" font-size="10" font-weight="400" fill="#4a5568">77.8</text>
<text x="226.0" y="339.0" text-anchor="middle" font-family="Arial, sans-serif" font-size="11" font-weight="400" fill="#1a202c">26B-A4B-it</text>
<rect x="322.0" y="175.3" width="24.0" height="139.7" fill="#2b6cb0" rx="3"/>
<text x="334.0" y="169.3" text-anchor="middle" font-family="Arial, sans-serif" font-size="10" font-weight="400" fill="#4a5568">71.2</text>
<rect x="350.0" y="142.7" width="24.0" height="172.3" fill="#dd6b20" rx="3"/>
<text x="362.0" y="136.7" text-anchor="middle" font-family="Arial, sans-serif" font-size="10" font-weight="400" fill="#4a5568">75.0</text>
<text x="336.0" y="339.0" text-anchor="middle" font-family="Arial, sans-serif" font-size="11" font-weight="400" fill="#1a202c">31B-it</text>
<rect x="115.0" y="372.0" width="12.0" height="12.0" fill="#2b6cb0" rx="2"/>
<text x="135.0" y="382.0" text-anchor="start" font-family="Arial, sans-serif" font-size="12" font-weight="400" fill="#1a202c">Accuracy (temp 0)</text>
<rect x="315.0" y="372.0" width="12.0" height="12.0" fill="#dd6b20" rx="2"/>
<text x="335.0" y="382.0" text-anchor="start" font-family="Arial, sans-serif" font-size="12" font-weight="400" fill="#1a202c">Pass@16</text>
</svg>
