<svg xmlns="http://www.w3.org/2000/svg" width="960" height="510" viewBox="0 0 960 510" role="img">
<rect width="960" height="510" fill="#ffffff"/>
<text x="480.0" y="32.0" text-anchor="middle" font-family="Arial, sans-serif" font-size="20" font-weight="700" fill="#1a202c">Training Experiment Summary</text>
<line x1="90.0" y1="390.0" x2="900.0" y2="390.0" stroke="#4a5568" stroke-width="1.2"/>
<line x1="90.0" y1="85.0" x2="90.0" y2="390.0" stroke="#4a5568" stroke-width="1.2"/>
<line x1="90.0" y1="390.0" x2="900.0" y2="390.0" stroke="#e2e8f0" stroke-width="1"/>
<text x="82.0" y="394.0" text-anchor="end" font-family="Arial, sans-serif" font-size="10" font-weight="400" fill="#718096">65</text>
<line x1="90.0" y1="329.0" x2="900.0" y2="329.0" stroke="#e2e8f0" stroke-width="1"/>
<text x="82.0" y="333.0" text-anchor="end" font-family="Arial, sans-serif" font-size="10" font-weight="400" fill="#718096">68</text>
<line x1="90.0" y1="268.0" x2="900.0" y2="268.0" stroke="#e2e8f0" stroke-width="1"/>
<text x="82.0" y="272.0" text-anchor="end" font-family="Arial, sans-serif" font-size="10" font-weight="400" fill="#718096">72</text>
<line x1="90.0" y1="207.0" x2="900.0" y2="207.0" stroke="#e2e8f0" stroke-width="1"/>
<text x="82.0" y="211.0" text-anchor="end" font-family="Arial, sans-serif" font-size="10" font-weight="400" fill="#718096">75</text>
<line x1="90.0" y1="146.0" x2="900.0" y2="146.0" stroke="#e2e8f0" stroke-width="1"/>
<text x="82.0" y="150.0" text-anchor="end" font-family="Arial, sans-serif" font-size="10" font-weight="400" fill="#718096">79</text>
<line x1="90.0" y1="85.0" x2="900.0" y2="85.0" stroke="#e2e8f0" stroke-width="1"/>
<text x="82.0" y="89.0" text-anchor="end" font-family="Arial, sans-serif" font-size="10" font-weight="400" fill="#718096">82</text>
<rect x="155.0" y="357.3" width="38.0" height="32.7" fill="#2b6cb0" rx="3"/>
<text x="174.0" y="351.3" text-anchor="middle" font-family="Arial, sans-serif" font-size="9" font-weight="400" fill="#4a5568">66.8</text>
<text x="174.0" y="408.0" text-anchor="middle" font-family="Arial, sans-serif" font-size="9" font-weight="400" fill="#718096">60</text>
<rect x="201.0" y="124.6" width="38.0" height="265.4" fill="#dd6b20" rx="3"/>
<text x="220.0" y="118.6" text-anchor="middle" font-family="Arial, sans-serif" font-size="9" font-weight="400" fill="#4a5568">79.8</text>
<text x="220.0" y="408.0" text-anchor="middle" font-family="Arial, sans-serif" font-size="9" font-weight="400" fill="#718096">0</text>
<rect x="247.0" y="320.0" width="38.0" height="70.0" fill="#2f855a" rx="3"/>
<text x="266.0" y="314.0" text-anchor="middle" font-family="Arial, sans-serif" font-size="9" font-weight="400" fill="#4a5568">68.9</text>
<text x="266.0" y="408.0" text-anchor="middle" font-family="Arial, sans-serif" font-size="9" font-weight="400" fill="#718096">20</text>
<text x="220.0" y="432.0" text-anchor="middle" font-family="Arial, sans-serif" font-size="12" font-weight="700" fill="#1a202c">Entropy Collapse</text>
<rect x="415.0" y="328.1" width="38.0" height="61.9" fill="#2b6cb0" rx="3"/>
<text x="434.0" y="322.1" text-anchor="middle" font-family="Arial, sans-serif" font-size="9" font-weight="400" fill="#4a5568">68.5</text>
<text x="434.0" y="408.0" text-anchor="middle" font-family="Arial, sans-serif" font-size="9" font-weight="400" fill="#718096">130</text>
<rect x="461.0" y="117.7" width="38.0" height="272.3" fill="#dd6b20" rx="3"/>
<text x="480.0" y="111.7" text-anchor="middle" font-family="Arial, sans-serif" font-size="9" font-weight="400" fill="#4a5568">80.2</text>
<text x="480.0" y="408.0" text-anchor="middle" font-family="Arial, sans-serif" font-size="9" font-weight="400" fill="#718096">40</text>
<rect x="507.0" y="285.9" width="38.0" height="104.1" fill="#2f855a" rx="3"/>
<text x="526.0" y="279.9" text-anchor="middle" font-family="Arial, sans-serif" font-size="9" font-weight="400" fill="#4a5568">70.8</text>
<text x="526.0" y="408.0" text-anchor="middle" font-family="Arial, sans-serif" font-size="9" font-weight="400" fill="#718096">120</text>
<text x="480.0" y="432.0" text-anchor="middle" font-family="Arial, sans-serif" font-size="12" font-weight="700" fill="#1a202c">Beta Schedule</text>
<rect x="675.0" y="353.9" width="38.0" height="36.1" fill="#2b6cb0" rx="3"/>
<text x="694.0" y="347.9" text-anchor="middle" font-family="Arial, sans-serif" font-size="9" font-weight="400" fill="#4a5568">67.0</text>
<text x="694.0" y="408.0" text-anchor="middle" font-family="Arial, sans-serif" font-size="9" font-weight="400" fill="#718096">100</text>
<rect x="721.0" y="117.7" width="38.0" height="272.3" fill="#dd6b20" rx="3"/>
<text x="740.0" y="111.7" text-anchor="middle" font-family="Arial, sans-serif" font-size="9" font-weight="400" fill="#4a5568">80.2</text>
<text x="740.0" y="408.0" text-anchor="middle" font-family="Arial, sans-serif" font-size="9" font-weight="400" fill="#718096">20</text>
<rect x="767.0" y="316.4" width="38.0" height="73.6" fill="#2f855a" rx="3"/>
<text x="786.0" y="310.4" text-anchor="middle" font-family="Arial, sans-serif" font-size="9" font-weight="400" fill="#4a5568">69.1</text>
<text x="786.0" y="408.0" text-anchor="middle" font-family="Arial, sans-serif" font-size="9" font-weight="400" fill="#718096">100</text>
<text x="740.0" y="432.0" text-anchor="middle" font-family="Arial, sans-serif" font-size="12" font-weight="700" fill="#1a202c">AER</text>
<text x="50.0" y="237.5" text-anchor="middle" font-family="Arial, sans-serif" font-size="11" font-weight="700" fill="#4a5568">Best accuracy (%)</text>
<text x="480.0" y="428.0" text-anchor="middle" font-family="Arial, sans-serif" font-size="11" font-weight="400" fill="#718096">Small numbers below bars are checkpoint ids.</text>
<rect x="335.0" y="460.0" width="12.0" height="12.0" fill="#2b6cb0" rx="2"/>
<text x="353.0" y="470.0" text-anchor="start" font-family="Arial, sans-serif" font-size="12" font-weight="400" fill="#1a202c">temp0</text>
<rect x="412.0" y="460.0" width="12.0" height="12.0" fill="#dd6b20" rx="2"/>
<text x="430.0" y="470.0" text-anchor="start" font-family="Arial, sans-serif" font-size="12" font-weight="400" fill="#1a202c">pass@16</text>
<rect x="503.0" y="460.0" width="12.0" height="12.0" fill="#2f855a" rx="2"/>
<text x="521.0" y="470.0" text-anchor="start" font-family="Arial, sans-serif" font-size="12" font-weight="400" fill="#1a202c">SC</text>
</svg>
